#tb 0: 1/25
#tb 1: 1/44100
0,          0,          0,        1,   230400, 0x5288d70f
1,          0,          0,    44100,   176400, 0xdd61578c
0,          1,          1,        1,   230400, 0x2d3c1066
0,          2,          2,        1,   230400, 0x89eb5b4a
0,          3,          3,        1,   230400, 0x24c2d2e7
0,          4,          4,        1,   230400, 0x9271cb38
0,          5,          5,        1,   230400, 0xc74a5009
0,          6,          6,        1,   230400, 0x61d70705
0,          7,          7,        1,   230400, 0x6bb2c252
0,          8,          8,        1,   230400, 0x6b3ac910
0,          9,          9,        1,   230400, 0x44071f28
0,         10,         10,        1,   230400, 0x8abd00fe
0,         11,         11,        1,   230400, 0xcbe3395d
0,         12,         12,        1,   230400, 0x603e7b7a
0,         13,         13,        1,   230400, 0x2ca8865b
0,         14,         14,        1,   230400, 0x11b4c665
0,         15,         15,        1,   230400, 0x3f19787c
0,         16,         16,        1,   230400, 0x651d24b6
0,         17,         17,        1,   230400, 0x325d05af
0,         18,         18,        1,   230400, 0x4f89d8a8
0,         19,         19,        1,   230400, 0xb07647f0
0,         20,         20,        1,   230400, 0x71141237
0,         21,         21,        1,   230400, 0xa848a2d2
0,         22,         22,        1,   230400, 0x3fbe4b58
0,         23,         23,        1,   230400, 0xa1e235a0
0,         24,         24,        1,   230400, 0x9bcf607a
0,         25,         25,        1,   230400, 0x3302e9eb
1,      44100,      44100,    44100,   176400, 0x0b9e6d67
0,         26,         26,        1,   230400, 0xd731ba90
0,         27,         27,        1,   230400, 0x821eedcf
0,         28,         28,        1,   230400, 0xd068a93d
0,         29,         29,        1,   230400, 0x2811d46e
0,         30,         30,        1,   230400, 0xd9740446
0,         31,         31,        1,   230400, 0x1bce0df6
0,         32,         32,        1,   230400, 0x44bc60ad
0,         33,         33,        1,   230400, 0xf56f6200
0,         34,         34,        1,   230400, 0x874a2264
0,         35,         35,        1,   230400, 0xaa155c0e
0,         36,         36,        1,   230400, 0x595392d4
0,         37,         37,        1,   230400, 0x58dc57de
0,         38,         38,        1,   230400, 0x1c06733e
0,         39,         39,        1,   230400, 0x6807b1db
0,         40,         40,        1,   230400, 0x3fedff87
0,         41,         41,        1,   230400, 0x3e38cc13
0,         42,         42,        1,   230400, 0x6685ec35
0,         43,         43,        1,   230400, 0x6c0742fd
0,         44,         44,        1,   230400, 0x8108f83c
0,         45,         45,        1,   230400, 0xc0e217c8
0,         46,         46,        1,   230400, 0xb22ca65d
0,         47,         47,        1,   230400, 0xd54cec93
0,         48,         48,        1,   230400, 0xd9d61de3
0,         49,         49,        1,   230400, 0x7e0f9675
0,         50,         50,        1,   230400, 0x9869f5b7
1,      88200,      88200,    44100,   176400, 0x2793fad7
0,         51,         51,        1,   230400, 0x22f33400
0,         52,         52,        1,   230400, 0x31b999bd
0,         53,         53,        1,   230400, 0x36c23878
0,         54,         54,        1,   230400, 0x06093a30
0,         55,         55,        1,   230400, 0x213f1718
0,         56,         56,        1,   230400, 0x83683006
0,         57,         57,        1,   230400, 0x0bfcec36
0,         58,         58,        1,   230400, 0x01b77825
0,         59,         59,        1,   230400, 0x650a5ea2
0,         60,         60,        1,   230400, 0xd8b2c559
0,         61,         61,        1,   230400, 0xb012eb10
0,         62,         62,        1,   230400, 0x135d53a4
0,         63,         63,        1,   230400, 0x98dd0712
0,         64,         64,        1,   230400, 0x75240ac0
0,         65,         65,        1,   230400, 0xa16769d5
0,         66,         66,        1,   230400, 0x3e08cda3
0,         67,         67,        1,   230400, 0xcd20d561
0,         68,         68,        1,   230400, 0x3531577d
0,         69,         69,        1,   230400, 0x65ff4c82
0,         70,         70,        1,   230400, 0x8fd4a580
0,         71,         71,        1,   230400, 0x3cf7af4c
0,         72,         72,        1,   230400, 0xda7a9202
0,         73,         73,        1,   230400, 0x4bebc138
0,         74,         74,        1,   230400, 0x5517e685
0,         75,         75,        1,   230400, 0x95f6c7a3
1,     132300,     132300,    44100,   176400, 0xe2649a4a
0,         76,         76,        1,   230400, 0x9849ebf9
0,         77,         77,        1,   230400, 0xd77e1c7d
0,         78,         78,        1,   230400, 0x4dc6c923
0,         79,         79,        1,   230400, 0x7ce817c8
0,         80,         80,        1,   230400, 0xafb4acde
0,         81,         81,        1,   230400, 0xd0030b2c
0,         82,         82,        1,   230400, 0xb3acb77c
0,         83,         83,        1,   230400, 0x4d32b61c
0,         84,         84,        1,   230400, 0x2436a915
0,         85,         85,        1,   230400, 0xa6fd831f
0,         86,         86,        1,   230400, 0x6c6edfca
0,         87,         87,        1,   230400, 0x4b30d72e
0,         88,         88,        1,   230400, 0x59f46a8a
0,         89,         89,        1,   230400, 0xa2d0435f
0,         90,         90,        1,   230400, 0x463872c4
0,         91,         91,        1,   230400, 0x1d7e870a
0,         92,         92,        1,   230400, 0x74f4e530
0,         93,         93,        1,   230400, 0xbc61053d
0,         94,         94,        1,   230400, 0x5fb238dc
0,         95,         95,        1,   230400, 0x14a29d83
0,         96,         96,        1,   230400, 0x3fd1d09b
0,         97,         97,        1,   230400, 0x098afc13
0,         98,         98,        1,   230400, 0x9bd12a62
0,         99,         99,        1,   230400, 0x7bf71419
